<?xml version="1.0" encoding="utf-8"?>
<!-- Generator: Adobe Illustrator 25.0.0, SVG Export Plug-In . SVG Version: 6.00 Build 0)  -->
<svg version="1.1" id="Layer_1" xmlns:xodm="http://www.corel.com/coreldraw/odm/2003"
	 xmlns="http://www.w3.org/2000/svg" xmlns:xlink="http://www.w3.org/1999/xlink" x="0px" y="0px" viewBox="0 0 44.42 15.8"
	 enable-background="new 0 0 44.42 15.8" xml:space="preserve">
<g id="Layer_x0020_1">
	<polygon fill-rule="evenodd" clip-rule="evenodd" fill="#0A8A53" points="0,0 44.42,0 44.42,15.8 0,15.8 	"/>
	<path fill-rule="evenodd" clip-rule="evenodd" fill="#FDB92E" d="M8.8,0l6.6,6.6c0.72,0.72,0.72,1.89,0,2.61l-6.6,6.6H0V0
		C0,0,8.8,0,8.8,0z"/>
	<path fill="#FDB92E" d="M37.65,6.25L37.34,6.5c-0.86-0.1-1.79-0.63-1.79-1.2c0-0.4,0.59-1.31,1.74-1.48l0.3,0.45
		c-0.92,0.26-1.4,0.64-1.4,1.02C36.19,5.88,36.83,6.12,37.65,6.25L37.65,6.25z M29.45,5.01l0.04,1.35L29.18,6.5
		c-0.83-0.2-1.79-0.63-1.79-1.2c0-0.4,0.82-1.32,1.74-1.58l0.3,0.49c-0.49,0.22-1.4,0.71-1.4,1.09c0,0.4,0.4,0.67,0.97,0.86
		l0.12-0.84l-0.57,0.14l-0.08-0.31L29.45,5.01L29.45,5.01z M35.3,6.37l-0.56,0l-0.1-2.42l0.63,0C35.26,5.07,35.26,5.27,35.3,6.37
		L35.3,6.37z M34.06,6.34l-0.61,0.02L32.5,4.83l0.05,1.52l-0.44,0.02l-0.2-2.31l0.46-0.1l1.2,1.76L33.5,3.87l0.66-0.01
		C34.16,3.85,34.06,6.34,34.06,6.34z M31.72,6.36l-0.6,0.04l-0.21-0.69l-0.59-0.05l-0.14,0.76l-0.5-0.04l0.74-2.45l0.39-0.04
		L31.72,6.36L31.72,6.36z M30.8,5.37L30.55,4.5l-0.16,0.84L30.8,5.37L30.8,5.37z M23.94,3.78c1.41,0.48,1.73,1.85,0.57,2.59
		l-0.72,0.17c-0.93-0.41-0.93-1.93-0.55-2.51L23.94,3.78z M23.86,4.23c-0.3,0.45-0.48,1.51,0.03,2.11
		C24.77,5.68,24.84,4.85,23.86,4.23z M26.29,5.7l0.93,0.48l-0.27,0.25l-0.91-0.44l0.06,0.49l-0.49-0.02l-0.15-2.53l0.81-0.12
		C27.54,4.14,27.62,5.24,26.29,5.7z M25.99,5.58c0.76-0.31,0.99-1.05,0.04-1.33L25.99,5.58z"/>
	<path fill="#FEFEFE" d="M29.65,11.55l-0.62,0.39l-0.74-3.39l-0.43,3.17l-0.72-0.15l-0.78-3l-0.14,3.24l-0.5-0.06l0.11-4.79
		l0.96-0.15l0.56,3.38L28.04,7l0.79,0.21L29.65,11.55L29.65,11.55z M39.11,9.18l-0.08,2.7l-0.55,0.15l-0.12-7.96l0.82-0.32
		C41.91,4.52,41.61,7.79,39.11,9.18L39.11,9.18z M39.3,4.84l-0.13,3.7C40.08,8.05,41.35,5.68,39.3,4.84z M22.32,3.95l-0.11,0.99
		L20.34,4.6c0.02,0.92,0.04,1.35,0.05,1.64l1.36-0.32l0.39,0.6L20.4,7.19c-0.01,0.62-0.05,1.82-0.12,4.81l-0.52-0.12l-0.47-8.16
		L22.32,3.95L22.32,3.95z M36.71,6.68c1.54,0.9,1.98,3.5,0.71,4.9l-0.87,0.33c-1.01-0.77-1.01-3.65-0.6-4.76
		C35.95,7.16,36.71,6.68,36.71,6.68z M36.62,7.53c-0.35,0.9-0.6,2.89,0.08,3.85C37.65,10.13,37.69,8.71,36.62,7.53z M35.36,6.91
		l-0.05,4.98l-0.85-0.08c0.01-0.79,0.02-1.34,0.03-1.84l-0.67,0.07c0,0.54,0,1.11-0.01,1.78l-0.38,0.15l-0.2-5.03L33.8,6.8
		c0.01,1.07,0.01,1.86,0.02,2.66l0.68-0.12c0.02-0.67,0.05-1.38,0.1-2.61L35.36,6.91L35.36,6.91z M32.67,7.09
		c-0.64,0.27-1.16,0.68-1.06,1.22c0.13,0.72,1.29,1.38,1.44,2.18c0.14,0.74-0.64,1.43-1.8,1.59l-0.2-0.55
		c1.74-0.37,1.54-0.86,0.36-1.81c-1.04-0.83-1.93-2.12,0.95-3.04L32.67,7.09L32.67,7.09z M24.32,10.5l1.17,0.78l-0.39,0.66
		l-1.08-0.87l0.07,0.97l-0.58-0.13L23.34,7l0.96-0.24C25.81,7.43,25.91,9.59,24.32,10.5L24.32,10.5z M23.97,10.27
		c0.9-0.62,1.18-2.06,0.04-2.62L23.97,10.27z M21.37,10.62c-0.09,0.48-0.17,0.96-0.24,1.45l-0.45-0.08l0.75-4.76l1.09-0.2l0.74,4.82
		l-0.8,0.08c-0.09-0.47-0.16-0.86-0.21-1.22L21.37,10.62L21.37,10.62z M21.95,7.86c-0.17,0.74-0.33,1.46-0.47,2.18l0.69,0.03
		C22.09,9.43,22.04,8.8,21.95,7.86z"/>
	<path fill-rule="evenodd" clip-rule="evenodd" fill="#FEFEFE" d="M7.24,1.69C6.49,2.49,1.66,7.23,1.66,7.23S1.09,7.61,1.57,8.38
		c0.48,0.77,6.08,6.26,6.08,6.26s0.95,0.45,1.59-0.23c0.63-0.68,5.97-6.12,5.97-6.12s0.25-0.93-0.36-1.27
		c-0.48-0.26-3.68-3.63-5.38-5.23C8.52,0.92,8.31,0.56,7.24,1.69L7.24,1.69z"/>
	<path fill="#FEFEFE" d="M14.75,7.18L9.01,1.43c-0.2-0.2-0.46-0.3-0.72-0.3c-0.26,0-0.52,0.1-0.72,0.3L1.82,7.18
		c-0.2,0.2-0.3,0.46-0.3,0.72c0,0.26,0.1,0.52,0.3,0.72l5.74,5.74l0,0c0.2,0.2,0.46,0.3,0.72,0.3c0.26,0,0.52-0.1,0.72-0.3l0,0
		l5.74-5.74c0.2-0.2,0.3-0.46,0.3-0.72C15.05,7.64,14.95,7.38,14.75,7.18L14.75,7.18z"/>
	<path fill-rule="evenodd" clip-rule="evenodd" fill="#FDB92E" d="M6.34,3.74c0.06,0.07,0.1,0.14,0.23,0.09
		c0.4-0.14,0.34,0.23,0.57,0.39c0,0-0.08,0.19-0.2,0.11c-0.11-0.08-0.16-0.3-0.28-0.26C6.54,4.1,6.4,4.2,6.3,4.04
		c-0.1-0.16-0.16-0.3-0.32-0.28c-0.04,0.01-0.07,0-0.09-0.01C5.84,3.74,5.82,3.65,5.87,3.58C5.92,3.51,6.05,3.5,6.13,3.54
		C6.23,3.59,6.29,3.68,6.34,3.74L6.34,3.74z M8.34,3.95c0.57,0,1.03,0.46,1.03,1.03c0,0.25-0.09,0.48-0.24,0.66
		c0.01-0.22-0.05-0.45-0.26-0.54C8.83,5.08,8.8,5.07,8.76,5.09C8.7,5.11,8.68,5.18,8.66,5.24C8.6,5.44,8.53,5.63,8.46,5.82
		C8.43,5.88,8.41,5.94,8.38,6C8.37,6,8.35,6,8.34,6C8.23,6,8.13,5.98,8.03,5.95C8,5.61,7.83,5.33,7.49,5.22
		C7.44,5.2,7.39,5.19,7.33,5.18c-0.01-0.07-0.02-0.13-0.02-0.2C7.31,4.41,7.77,3.95,8.34,3.95L8.34,3.95z M10.48,3.99
		c-0.09,0.01-0.17,0-0.21,0.13c-0.14,0.41-0.39,0.14-0.65,0.23c0,0-0.1-0.19,0.03-0.23c0.13-0.04,0.32,0.05,0.38-0.07
		c0.05-0.12,0.06-0.29,0.25-0.28c0.18,0.01,0.25,0.07,0.33-0.08c0.02-0.04,0.04-0.06,0.06-0.07c0.05-0.03,0.13,0.01,0.15,0.09
		c0.03,0.09-0.04,0.2-0.12,0.24C10.59,4.01,10.55,3.99,10.48,3.99L10.48,3.99z M9.62,2.98c-0.07,0.06-0.14,0.1-0.1,0.24
		c0.13,0.42-0.24,0.35-0.39,0.58c0,0-0.19-0.09-0.1-0.2C9.11,3.47,9.32,3.43,9.29,3.3C9.26,3.17,9.18,3.02,9.33,2.92
		c0.15-0.1,0.24-0.1,0.23-0.26c0-0.04,0-0.07,0.01-0.09C9.58,2.52,9.67,2.5,9.73,2.55C9.8,2.61,9.81,2.74,9.77,2.82
		C9.72,2.92,9.68,2.92,9.62,2.98z M8.4,2.52c-0.01,0.1-0.03,0.19,0.09,0.26c0.37,0.24,0.06,0.46,0.09,0.76c0,0-0.2,0.07-0.21-0.08
		c-0.02-0.15,0.11-0.35,0-0.43C8.27,2.95,8.11,2.9,8.16,2.7C8.2,2.5,8.27,2.44,8.15,2.32C8.12,2.29,8.1,2.27,8.09,2.24
		C8.08,2.19,8.13,2.11,8.21,2.1C8.3,2.09,8.39,2.19,8.41,2.28C8.45,2.4,8.41,2.44,8.4,2.52L8.4,2.52z M7.18,2.92
		c0.04,0.09,0.05,0.17,0.19,0.17C7.79,3.1,7.61,3.43,7.78,3.66c0,0-0.14,0.15-0.22,0.04C7.47,3.58,7.5,3.36,7.37,3.35
		S7.09,3.37,7.04,3.19c-0.05-0.18-0.01-0.27-0.17-0.3C6.83,2.88,6.81,2.86,6.79,2.85C6.75,2.81,6.77,2.72,6.83,2.68
		c0.07-0.05,0.2-0.02,0.26,0.05C7.17,2.8,7.15,2.85,7.18,2.92L7.18,2.92z"/>
	<path fill="#0A8A53" d="M9.23,1.21l5.74,5.74c0.26,0.26,0.41,0.58,0.41,0.95c0,0.37-0.15,0.69-0.4,0.95l-5.74,5.74
		c-0.12,0.12-0.27,0.22-0.43,0.29c-0.16,0.07-0.34,0.1-0.51,0.1c-0.17,0-0.35-0.03-0.51-0.1c-0.16-0.07-0.31-0.16-0.43-0.29
		L1.6,8.85C1.35,8.6,1.2,8.25,1.2,7.9c0-0.36,0.15-0.69,0.4-0.94l5.74-5.74c0.25-0.25,0.59-0.39,0.95-0.39
		C8.64,0.82,8.98,0.96,9.23,1.21L9.23,1.21z M12.03,10.55C12.03,10.55,12.03,10.55,12.03,10.55l0.01,0.05c0,0.03,0,0.04,0.05,0.05
		h0.24c0.04,0,0.05-0.02,0.05-0.04v-0.32V9.55c0-0.03-0.01-0.04-0.05-0.04h-0.24c-0.04,0-0.05,0.01-0.05,0.05c0,0,0,0.05,0,0.05
		c0,0-0.08-0.11-0.3-0.11c-0.14,0-0.29,0.05-0.4,0.16c-0.11,0.12-0.15,0.28-0.15,0.44c0,0.14,0.04,0.26,0.11,0.36
		c0.1,0.14,0.24,0.21,0.42,0.21C11.82,10.67,11.95,10.63,12.03,10.55z M11.87,9.78c0.09,0.01,0.16,0.08,0.16,0.12v0.38
		c-0.04,0.1-0.15,0.12-0.22,0.12c-0.18,0-0.29-0.14-0.28-0.33C11.54,9.87,11.68,9.75,11.87,9.78L11.87,9.78z M10.98,9.81
		c-0.24-0.01-0.36,0.06-0.36,0.11v0.69c0,0.03,0,0.04-0.05,0.05h-0.24c-0.04,0-0.05-0.02-0.05-0.04V9.59c0-0.05,0.02-0.06,0.06-0.06
		h0.22c0.03,0,0.05,0.01,0.05,0.05v0.05c0,0,0,0,0,0c0.06-0.06,0.11-0.09,0.16-0.11c0.05-0.01,0.1-0.02,0.16-0.02
		c0.01,0,0.03,0,0.04,0c0.04,0,0.04,0.01,0.04,0.04v0.23C11.03,9.81,11.02,9.81,10.98,9.81z M9.43,10.49V9.74h-0.2
		c-0.02,0-0.03-0.01-0.03-0.03V9.56c0-0.02,0.01-0.03,0.03-0.03h0.2V9.18c0-0.05,0.02-0.06,0.06-0.06h0.22
		c0.03,0,0.05,0.01,0.05,0.05c0,0.1,0,0.22,0,0.36h0.24c0.02,0,0.03,0.01,0.03,0.03v0.15c0,0.02-0.01,0.03-0.03,0.03H9.77v0.79
		c0,0.05,0.03,0.08,0.08,0.09c0.02,0,0.02,0.04,0,0.04H9.6C9.46,10.65,9.43,10.61,9.43,10.49L9.43,10.49z M8.99,9.88v0.72
		c0,0.03,0,0.04-0.05,0.04H8.7c-0.04,0-0.05-0.02-0.05-0.04V9.94c0-0.26-0.45-0.19-0.46-0.05v0.72c0,0.03,0,0.04-0.05,0.04H7.9
		c-0.04,0-0.05-0.02-0.05-0.04V9.59c0-0.05,0.02-0.06,0.06-0.06h0.22c0.03,0,0.05,0.01,0.05,0.05v0.05C8.45,9.4,8.99,9.45,8.99,9.88
		L8.99,9.88z M7.25,10.55C7.25,10.55,7.25,10.55,7.25,10.55l0.01,0.05c0,0.03,0,0.04,0.05,0.05h0.24c0.04,0,0.05-0.02,0.05-0.04
		v-0.32V9.55c0-0.03-0.01-0.04-0.05-0.04H7.3c-0.04,0-0.05,0.01-0.05,0.04c0,0,0,0.05,0,0.05c0,0-0.08-0.11-0.3-0.11
		c-0.14,0-0.29,0.05-0.4,0.16C6.44,9.78,6.4,9.95,6.4,10.11c0,0.14,0.04,0.26,0.11,0.36c0.1,0.14,0.24,0.21,0.42,0.21
		C7.04,10.67,7.17,10.63,7.25,10.55L7.25,10.55z M7.09,9.78c0.09,0.01,0.16,0.08,0.16,0.12v0.38c-0.04,0.1-0.15,0.12-0.22,0.12
		c-0.18,0-0.29-0.14-0.28-0.33C6.76,9.87,6.9,9.75,7.09,9.78z M5.37,9.89v0.72c0,0.03,0,0.04-0.05,0.04H5.08
		c-0.04,0-0.05-0.02-0.05-0.04c0-0.22,0-0.45,0-0.67c0-0.26-0.45-0.19-0.46-0.05v0.72c0,0.03,0,0.04-0.05,0.04H4.29
		c-0.04,0-0.05-0.02-0.05-0.04V9.59c0-0.05,0.02-0.06,0.06-0.06h0.22c0.03,0,0.05,0.01,0.05,0.05v0.06
		c0.07-0.07,0.17-0.11,0.26-0.12c0.17-0.03,0.37,0,0.48,0.16C5.42,9.57,5.52,9.5,5.75,9.5c0.21,0,0.41,0.12,0.41,0.38v0.72
		c0,0.03,0,0.04-0.05,0.04H5.87c-0.04,0-0.05-0.02-0.05-0.04V9.94C5.83,9.68,5.38,9.75,5.37,9.89z M6,6.33
		c0.12,0.06,0.4,0.19,0.5,0.03C6.53,6.32,6.6,6.17,6.69,6c0.1-0.18,0.28-0.48,0.53-0.43c0.12,0.02,0.18,0.11,0.21,0.22
		c0.08,0.31-0.1,0.74-0.31,1.13C6.82,7.44,6.28,8.27,6.04,8.6C5.92,8.78,5.98,8.99,6.23,8.94c0.01,0,1.66-0.38,1.93-0.44
		C8.22,8.48,8.27,8.46,8.29,8.4c0.02-0.06,0.06-0.28,0.06-0.32c0.03-0.25-0.1-0.24-0.25-0.18C8.05,7.93,7.27,8.21,7.02,8.3l0,0
		c0.02-0.01,0.29-0.5,0.52-0.99c0.19-0.4,0.43-0.87,0.4-1.33C7.93,5.68,7.79,5.41,7.46,5.3c-0.31-0.1-0.68-0.01-0.93,0.18
		c-0.28,0.2-0.48,0.52-0.57,0.75C5.93,6.28,5.94,6.3,6,6.33L6,6.33z M8.74,5.27c-0.18,0.6-0.56,1.4-0.71,1.65
		C7.98,6.99,7.94,7.09,7.96,7.15c0.02,0.07,0.08,0.12,0.21,0.09l1.27-0.31L9.37,8.62c-0.01,0.16,0.01,0.2,0.17,0.16
		C9.65,8.76,9.8,8.72,9.91,8.69c0.06-0.01,0.1-0.04,0.1-0.14l0.05-1.77l0.52-0.12c0.05-0.02,0.08-0.05,0.06-0.13
		c0,0-0.04-0.25-0.04-0.25c-0.01-0.06-0.07-0.06-0.12-0.04l-0.4,0.12l0.04-0.87c0-0.08-0.01-0.11-0.1-0.14c0,0-0.34-0.1-0.34-0.1
		c-0.08-0.02-0.13,0-0.14,0.14L9.47,6.54L8.5,6.83l0,0C8.53,6.82,8.54,6.81,8.54,6.8c0.15-0.22,0.38-0.65,0.47-0.97
		c0.06-0.21,0.06-0.55-0.18-0.66C8.78,5.15,8.77,5.18,8.74,5.27L8.74,5.27z M14.69,7.2L8.97,1.47C8.79,1.29,8.54,1.19,8.28,1.19
		c-0.26,0-0.5,0.1-0.68,0.28L1.86,7.22C1.67,7.4,1.58,7.65,1.58,7.9c0,0.25,0.09,0.5,0.28,0.68l5.74,5.74
		c0.18,0.18,0.43,0.28,0.68,0.28s0.5-0.1,0.68-0.28l5.74-5.74c0.18-0.18,0.28-0.43,0.28-0.68C14.99,7.62,14.89,7.39,14.69,7.2z"/>
	<path fill="#282828" d="M5.87,11.81c-0.09,0-0.16-0.02-0.23-0.05c-0.07-0.04-0.12-0.09-0.15-0.15c-0.04-0.07-0.05-0.14-0.05-0.23
		c0-0.09,0.02-0.17,0.05-0.23c0.04-0.07,0.08-0.12,0.15-0.15c0.06-0.04,0.14-0.05,0.23-0.05c0.09,0,0.16,0.02,0.23,0.05
		c0.06,0.04,0.11,0.09,0.15,0.15c0.03,0.07,0.05,0.14,0.05,0.23c0,0.09-0.02,0.17-0.05,0.23c-0.03,0.07-0.08,0.12-0.15,0.15
		C6.03,11.79,5.96,11.81,5.87,11.81z M5.87,11.64c0.06,0,0.11-0.02,0.15-0.07c0.04-0.05,0.05-0.11,0.05-0.2
		c0-0.09-0.02-0.15-0.05-0.2c-0.04-0.04-0.09-0.07-0.15-0.07s-0.11,0.02-0.15,0.07c-0.04,0.04-0.05,0.11-0.05,0.2
		c0,0.09,0.02,0.16,0.05,0.2C5.76,11.62,5.81,11.64,5.87,11.64z M7.17,11.8H6.93l-0.11-0.28c-0.01-0.03-0.04-0.05-0.09-0.05H6.65
		v0.33H6.43v-0.86h0.4c0.1,0,0.18,0.02,0.23,0.07c0.05,0.04,0.08,0.11,0.08,0.19c0,0.06-0.02,0.11-0.05,0.15
		c-0.03,0.04-0.07,0.07-0.13,0.09c0.02,0,0.05,0.02,0.07,0.03c0.02,0.02,0.03,0.04,0.05,0.07L7.17,11.8L7.17,11.8z M6.79,11.3
		c0.05,0,0.08-0.01,0.1-0.02c0.02-0.01,0.03-0.04,0.03-0.07c0-0.03-0.01-0.06-0.03-0.07s-0.06-0.02-0.11-0.02H6.65v0.18L6.79,11.3
		L6.79,11.3z M8.03,11.32v0.43c-0.05,0.02-0.1,0.04-0.15,0.05c-0.06,0.01-0.11,0.02-0.17,0.02c-0.09,0-0.17-0.02-0.24-0.05
		c-0.07-0.04-0.12-0.09-0.16-0.15c-0.04-0.07-0.06-0.14-0.06-0.24c0-0.09,0.02-0.17,0.06-0.23c0.04-0.07,0.09-0.12,0.16-0.15
		c0.07-0.04,0.15-0.05,0.24-0.05c0.06,0,0.12,0.01,0.17,0.02c0.05,0.02,0.1,0.04,0.13,0.07l-0.07,0.16
		c-0.04-0.03-0.08-0.04-0.11-0.06c-0.04-0.01-0.08-0.02-0.12-0.02c-0.08,0-0.13,0.02-0.17,0.06c-0.04,0.04-0.06,0.11-0.06,0.2
		c0,0.09,0.02,0.16,0.06,0.2c0.04,0.04,0.1,0.07,0.18,0.07c0.04,0,0.08,0,0.11-0.01v-0.16H7.68v-0.15L8.03,11.32L8.03,11.32z
		 M8.83,11.8l-0.08-0.18H8.37L8.29,11.8H8.07l0.4-0.86h0.18l0.4,0.86H8.83L8.83,11.8z M8.44,11.45h0.23l-0.12-0.27L8.44,11.45
		L8.44,11.45z M9.65,10.94h0.21v0.86H9.7l-0.39-0.49v0.49H9.1v-0.86h0.16l0.39,0.48L9.65,10.94L9.65,10.94z M10.02,11.8v-0.86h0.23
		v0.86H10.02z M10.81,11.81c-0.09,0-0.17-0.02-0.23-0.05c-0.07-0.04-0.12-0.09-0.15-0.15c-0.04-0.07-0.05-0.14-0.05-0.23
		c0-0.09,0.02-0.16,0.05-0.23c0.04-0.07,0.09-0.12,0.15-0.15c0.07-0.04,0.14-0.05,0.23-0.05c0.06,0,0.11,0.01,0.16,0.03
		c0.05,0.02,0.09,0.04,0.13,0.07l-0.07,0.16c-0.07-0.05-0.14-0.08-0.22-0.08c-0.07,0-0.12,0.02-0.16,0.07
		c-0.04,0.04-0.06,0.11-0.06,0.19c0,0.09,0.02,0.15,0.06,0.2c0.04,0.04,0.09,0.07,0.16,0.07c0.07,0,0.15-0.03,0.22-0.08l0.07,0.16
		c-0.03,0.03-0.07,0.05-0.13,0.07C10.92,11.8,10.87,11.81,10.81,11.81L10.81,11.81z"/>
</g>
</svg>
